<svg viewBox="0 0 500 500" width="500" height="500" xmlns="http://www.w3.org/2000/svg">
<rect width="500" height="500" fill="#f4f2ed"/>
<path d="M282.9 269 A38 38 0 1 1 274.4 220.9 M260 267.3 A20 20 0 1 1 256.8 231.2 M282.9 269 L267.3 260 M274.4 220.9 L262.9 234.7 M282.6 269.6 L318.6 291.2 M328.8 263.9 A80 80 0 0 1 299.3 313 M328.8 263.9 L364.2 270.1 M366 250 A116 116 0 0 1 359 289.7 M366 250 L432 250 M432 250 L454 250 M359 289.7 L421 312.2 M421 312.2 L441.7 319.8 M299.3 313 L321.4 341.4 M336.2 327.6 A116 116 0 0 1 304.5 352.4 M336.2 327.6 L385.3 371.8 M385.3 371.8 L401.6 386.5 M304.5 352.4 L335.4 410.7 M335.4 410.7 L345.8 430.1 M227.7 280.7 L203 314.7 M229.3 327.3 A80 80 0 0 1 175.8 280 M229.3 327.3 L220 362 M241.9 365.7 A116 116 0 0 1 181.8 343.8 M241.9 365.7 L239.8 395.6 M265.3 395.2 A146 146 0 0 1 214.7 391.7 M265.3 395.2 L269 431 M269 431 L271.3 452.9 M214.7 391.7 L206 426.6 M206 426.6 L200.6 447.9 M181.8 343.8 L143 397.2 M143 397.2 L130.1 415 M175.8 280 L142.4 293.5 M151.6 311.5 A116 116 0 0 1 136.5 274.1 M151.6 311.5 L95.7 346.4 M95.7 346.4 L77 358.1 M136.5 274.1 L72 287.8 M72 287.8 L50.5 292.4 M220.1 226.6 L187 200.7 M173.9 225.3 A80 80 0 0 1 207.6 182.2 M173.9 225.3 L139.7 214.2 M135.1 233.9 A116 116 0 0 1 147.6 195.5 M135.1 233.9 L69.8 224.7 M69.8 224.7 L48 221.6 M147.6 195.5 L89.3 164.6 M89.3 164.6 L69.9 154.2 M207.6 182.2 L188.5 151.6 M172.4 163.8 A116 116 0 0 1 206.5 142.4 M172.4 163.8 L128.2 114.7 M128.2 114.7 L113.5 98.4 M206.5 142.4 L181.8 81.3 M181.8 81.3 L173.6 60.9 M273.4 220.1 L299.3 187 M261.1 170.8 A80 80 0 0 1 317.8 207.6 M261.1 170.8 L266.1 135.1 M246 134.1 A116 116 0 0 1 285.8 139.7 M246 134.1 L243.6 68.1 M243.6 68.1 L242.9 46.1 M285.8 139.7 L306.2 76.9 M306.2 76.9 L313 56 M317.8 207.6 L348.4 188.5 M336.2 172.4 A116 116 0 0 1 363.5 225.9 M336.2 172.4 L358.5 152.3 M339.9 135 A146 146 0 0 1 373.8 172.6 M339.9 135 L362.1 106.6 M362.1 106.6 L375.6 89.2 M373.8 172.6 L404.3 153.6 M404.3 153.6 L423 141.9 M363.5 225.9 L428 212.2 M428 212.2 L449.5 207.6" stroke="#2d6a4f" stroke-width="1.8" fill="none" stroke-linecap="round" stroke-linejoin="round"/>
<circle cx="250" cy="250" r="4" fill="#2d6a4f"/>
<circle cx="457" cy="250" r="2.5" fill="#2d6a4f"/>
<circle cx="444.5" cy="320.8" r="2.5" fill="#2d6a4f"/>
<circle cx="403.8" cy="388.5" r="2.5" fill="#2d6a4f"/>
<circle cx="347.2" cy="432.8" r="2.5" fill="#2d6a4f"/>
<circle cx="271.6" cy="455.9" r="2.5" fill="#2d6a4f"/>
<circle cx="199.9" cy="450.9" r="2.5" fill="#2d6a4f"/>
<circle cx="128.3" cy="417.5" r="2.5" fill="#2d6a4f"/>
<circle cx="74.5" cy="359.7" r="2.5" fill="#2d6a4f"/>
<circle cx="47.5" cy="293" r="2.5" fill="#2d6a4f"/>
<circle cx="45" cy="221.2" r="2.5" fill="#2d6a4f"/>
<circle cx="67.2" cy="152.8" r="2.5" fill="#2d6a4f"/>
<circle cx="111.5" cy="96.2" r="2.5" fill="#2d6a4f"/>
<circle cx="172.5" cy="58.1" r="2.5" fill="#2d6a4f"/>
<circle cx="242.8" cy="43.1" r="2.5" fill="#2d6a4f"/>
<circle cx="314" cy="53.1" r="2.5" fill="#2d6a4f"/>
<circle cx="377.4" cy="86.9" r="2.5" fill="#2d6a4f"/>
<circle cx="425.5" cy="140.3" r="2.5" fill="#2d6a4f"/>
<circle cx="452.5" cy="207" r="2.5" fill="#2d6a4f"/>
</svg>
